# Blender 3.3.1
# www.blender.org
mtllib tie.mtl
o TIE
v -0.762000 -0.769293 -0.762000
v 0.762000 -0.769293 -0.762000
v -0.762000 0.754707 -0.762000
v 0.762000 0.754707 -0.762000
v -0.898422 -0.007293 -1.067387
v 0.916946 -0.007293 -1.067387
v 0.496505 -0.007293 -1.101366
v -0.002637 0.804623 -0.800750
v -0.443821 -0.007293 -1.101366
v -0.195251 0.430729 -2.540000
v 0.426073 -0.007293 -2.540000
v 0.195251 -0.445315 -2.540000
v -0.426074 -0.007293 -2.540000
v -0.002637 -0.819208 -0.800750
v -0.018962 -0.818135 -0.799917
v 0.014196 0.803524 -0.799897
v -0.459576 -0.007293 -1.100188
v 0.512650 -0.007293 -1.100061
v -0.018962 0.803550 -0.799917
v 0.014196 -0.818109 -0.799897
v 0.002304 0.532688 -1.016354
v 0.334389 -0.007293 -1.216307
v 0.002227 -0.547273 -1.016354
v -0.291260 -0.007293 -1.216353
v -0.002593 0.809558 -0.787365
v -0.002593 -0.824143 -0.787365
v -0.775097 1.003757 0.000000
v 0.000000 1.099881 -0.000000
v 0.000147 0.224910 -2.442774
v 0.195251 0.430729 -2.540000
v 0.000142 -0.239495 -2.442774
v -0.195251 -0.445315 -2.540000
v 2.325354 5.209361 -2.540000
v 3.915986 -0.007293 -2.540000
v 2.325354 -5.223945 -2.540000
v -2.325354 -5.223945 -2.540000
v -3.915697 -0.007292 -2.540000
v -2.325354 5.209361 -2.540000
v 2.325354 5.209361 -2.765453
v 3.915986 -0.007293 -2.765453
v 2.325354 -5.223945 -2.765453
v -2.325354 -5.223945 -2.765453
v -3.915697 -0.007292 -2.765453
v -2.325354 5.209361 -2.765453
v 0.189657 0.419238 -2.739594
v 0.466409 -0.007293 -2.741284
v 0.189657 -0.433823 -2.739594
v -0.189658 -0.433823 -2.739594
v -0.466409 -0.007293 -2.741284
v -0.189657 0.419238 -2.739594
v 2.228649 4.992415 -2.811032
v 3.751269 -0.007293 -2.812534
v 2.228649 -5.007000 -2.811032
v -2.228649 -5.007000 -2.811032
v -3.750980 -0.007293 -2.812534
v -2.228649 4.992415 -2.811032
v 2.236436 5.010940 -2.802562
v 3.813391 -0.007293 -2.786685
v 2.239008 -5.027923 -2.803673
v -2.236713 -5.027923 -2.795818
v -3.815121 -0.006493 -2.790431
v -2.236712 5.014936 -2.810522
v 0.191040 0.421283 -2.783451
v 0.469175 -0.007293 -2.785147
v 0.191040 -0.435868 -2.783451
v -0.191040 -0.435868 -2.783451
v -0.469175 -0.007293 -2.785147
v -0.191040 0.421283 -2.783451
v 0.260135 0.314815 -2.614784
v 0.400081 0.099172 -2.615638
v 0.400081 -0.113758 -2.615638
v 0.260135 -0.329400 -2.614784
v 0.074475 -0.435868 -2.614363
v -0.074475 -0.435868 -2.614363
v -0.260135 -0.329400 -2.614784
v -0.400082 -0.113758 -2.615638
v -0.400082 0.099173 -2.615638
v -0.260135 0.314815 -2.614784
v -0.074475 0.421283 -2.614363
v 0.074475 0.421283 -2.614363
v 2.228649 4.992415 -2.811032
v 3.757127 -0.007293 -2.803740
v 2.228649 -5.007000 -2.811032
v -2.228649 -5.007000 -2.811032
v -3.756839 -0.007293 -2.803740
v -2.228649 4.992415 -2.811032
v 3.758120 0.099171 -2.715068
v 2.301941 4.895358 -2.712242
v 2.301940 -4.909943 -2.712242
v 3.758120 -0.113757 -2.715068
v -2.121253 -5.027571 -2.712173
v 2.121253 -5.027571 -2.712173
v -3.757831 -0.113756 -2.715068
v -2.301941 -4.909943 -2.712242
v -2.301940 4.895358 -2.712242
v -3.757831 0.099171 -2.715068
v 2.121253 5.012986 -2.712173
v -2.121253 5.012986 -2.712173
v 0.191040 0.421283 -2.720834
v 0.469175 -0.007293 -2.722529
v 0.191040 -0.435868 -2.720834
v -0.191040 -0.435868 -2.720834
v -0.469175 -0.007293 -2.722529
v -0.191040 0.421283 -2.720834
v -0.762000 -0.769293 0.762000
v -0.018962 -0.818135 0.799917
v -0.002593 -0.824143 0.787365
v -0.000000 -1.114467 0.000000
v -0.775097 -1.018342 0.000000
v -0.762000 0.754707 0.762000
v -0.002593 0.809558 0.787365
v -0.018962 0.803550 0.799917
v -1.213880 -0.007293 0.000000
v -0.898422 -0.007293 1.067387
v 0.775097 -1.018342 -0.000000
v 0.762000 -0.769293 0.762000
v 0.916946 -0.007293 1.067387
v 1.213880 -0.007293 -0.000000
v 0.014196 0.803524 0.799897
v 0.762000 0.754707 0.762000
v 0.512650 -0.007293 1.100061
v 0.775097 1.003757 -0.000000
v -0.459576 -0.007293 1.100188
v 0.014196 -0.818109 0.799897
v 0.334389 -0.007293 1.216307
v 0.426073 -0.007293 2.540000
v 0.195251 0.430729 2.540000
v 0.000147 0.224910 2.442774
v 0.002304 0.532688 1.016354
v 0.002227 -0.547273 1.016354
v 0.000142 -0.239495 2.442774
v 0.195251 -0.445315 2.540000
v -0.291260 -0.007293 1.216353
v -0.426073 -0.007293 2.540000
v -0.195251 -0.445315 2.540000
v -0.195251 0.430729 2.540000
v -0.002637 -0.819208 0.800750
v -0.002637 0.804623 0.800750
v 0.496505 -0.007293 1.101366
v -0.443821 -0.007293 1.101366
v 3.915986 -0.007293 2.540000
v 2.325354 5.209361 2.540000
v 2.325354 -5.223945 2.540000
v -2.325354 -5.223945 2.540000
v -3.915697 -0.007292 2.540000
v -2.325354 5.209361 2.540000
v 3.915986 -0.007293 2.765453
v 2.325354 5.209361 2.765453
v 2.325354 -5.223945 2.765453
v -2.325354 -5.223945 2.765453
v -3.915697 -0.007292 2.765453
v -2.325354 5.209361 2.765453
v 3.751269 -0.007293 2.812534
v 2.228649 4.992415 2.811032
v 2.228649 -5.007000 2.811032
v -2.228649 -5.007000 2.811032
v -3.750980 -0.007293 2.812534
v -2.228649 4.992415 2.811032
v 0.191040 0.421283 2.783451
v 0.469175 -0.007293 2.785147
v 0.191040 -0.435868 2.783451
v -0.191040 -0.435868 2.783451
v -0.469175 -0.007293 2.785147
v -0.191040 0.421283 2.783451
v 3.757127 -0.007293 2.803740
v 3.758120 0.099171 2.715068
v 2.301941 4.895358 2.712242
v 2.228649 4.992415 2.811032
v 2.228649 -5.007000 2.811032
v 2.301940 -4.909943 2.712242
v 3.758120 -0.113757 2.715068
v -2.228649 -5.007000 2.811032
v -2.121253 -5.027571 2.712173
v 2.121253 -5.027571 2.712173
v -3.756839 -0.007293 2.803740
v -3.757831 -0.113756 2.715068
v -2.301941 -4.909943 2.712242
v -2.228649 4.992415 2.811032
v -2.301940 4.895358 2.712242
v -3.757831 0.099171 2.715068
v 2.121253 5.012986 2.712173
v -2.121253 5.012986 2.712173
v 0.400082 0.099172 2.615638
v 0.260135 0.314815 2.614784
v 0.260135 -0.329400 2.614784
v 0.400082 -0.113758 2.615638
v -0.074475 -0.435868 2.614363
v 0.074475 -0.435868 2.614363
v -0.400082 -0.113758 2.615638
v -0.260135 -0.329400 2.614784
v -0.260135 0.314815 2.614784
v -0.400082 0.099173 2.615638
v 0.074475 0.421283 2.614363
v -0.074475 0.421283 2.614363
v 0.469175 -0.007293 2.722529
v 0.191040 0.421283 2.720834
v 0.191040 -0.435868 2.720834
v -0.191040 -0.435868 2.720834
v -0.469175 -0.007293 2.722529
v -0.191040 0.421283 2.720834
v 3.813391 -0.007293 2.786685
v 2.236436 5.010940 2.802562
v 2.239008 -5.027923 2.803673
v -2.236713 -5.027923 2.795818
v -3.815121 -0.006493 2.790431
v -2.236712 5.014936 2.810522
v 0.189657 0.419238 2.739594
v 0.466409 -0.007293 2.741284
v 0.189657 -0.433823 2.739594
v -0.189657 -0.433823 2.739594
v -0.466409 -0.007293 2.741284
v -0.189657 0.419238 2.739594
vn -0.0970 -0.9395 -0.3286
vn -0.0791 -0.9354 -0.3446
vn -0.0003 -0.9382 -0.3460
vn -0.0000 -1.0000 -0.0000
vn -0.1231 -0.9924 -0.0000
vn -0.0970 0.9395 -0.3286
vn -0.1231 0.9924 -0.0000
vn -0.0000 1.0000 -0.0000
vn -0.0003 0.9383 -0.3460
vn -0.0791 0.9354 -0.3446
vn -0.9431 -0.3324 -0.0000
vn -0.9173 -0.3981 -0.0000
vn -0.9231 -0.3266 -0.2027
vn -0.9743 -0.2085 -0.0849
vn 0.9175 -0.3432 -0.2009
vn 0.9219 -0.2903 -0.2565
vn 0.9370 -0.3493 -0.0000
vn 0.9173 -0.3981 -0.0000
vn -0.9431 0.3324 -0.0000
vn -0.9743 0.2085 -0.0849
vn -0.9231 0.3266 -0.2027
vn -0.9173 0.3981 -0.0000
vn 0.0725 0.3846 -0.9203
vn 0.0744 0.3840 -0.9203
vn 0.0737 0.3849 -0.9200
vn 0.0718 0.3848 -0.9202
vn 0.9175 0.3432 -0.2009
vn 0.9173 0.3981 -0.0000
vn 0.9370 0.3493 -0.0000
vn 0.9219 0.2903 -0.2565
vn -0.0697 0.3805 -0.9221
vn -0.0689 0.3817 -0.9217
vn -0.0711 0.3809 -0.9219
vn -0.0720 0.3805 -0.9220
vn 0.0737 -0.3849 -0.9200
vn 0.0744 -0.3840 -0.9203
vn 0.0725 -0.3846 -0.9203
vn 0.0718 -0.3848 -0.9202
vn 0.5080 0.7704 0.3853
vn 0.3012 0.1587 0.9403
vn 0.5754 0.6755 0.4611
vn 0.7740 0.6264 -0.0924
vn 0.8251 0.5520 -0.1204
vn 0.5086 -0.7843 0.3552
vn 0.3011 -0.1587 0.9403
vn 0.6089 -0.7475 0.2656
vn 0.7811 -0.6244 -0.0040
vn 0.8599 -0.5069 0.0596
vn -0.5071 -0.7623 0.4022
vn -0.3009 -0.1586 0.9404
vn -0.5782 -0.6671 0.4697
vn -0.8043 -0.5888 -0.0796
vn -0.8562 -0.5053 -0.1078
vn -0.5084 0.7844 0.3553
vn -0.3009 0.1586 0.9404
vn -0.6154 0.7378 0.2773
vn -0.8102 0.5859 0.0202
vn -0.8886 0.4496 0.0905
vn 0.1231 0.9924 -0.0000
vn 0.0967 0.9394 -0.3288
vn 0.0785 0.9353 -0.3451
vn 0.0967 -0.9394 -0.3288
vn 0.1231 -0.9924 -0.0000
vn 0.0785 -0.9353 -0.3451
vn -0.0711 -0.3809 -0.9219
vn -0.0689 -0.3817 -0.9217
vn -0.0698 -0.3805 -0.9221
vn -0.0721 -0.3806 -0.9219
vn -0.0004 -0.9382 -0.3460
vn -0.0004 0.9383 -0.3460
vn 0.2308 0.4594 -0.8577
vn 0.2422 0.4644 -0.8519
vn -0.0690 0.3792 -0.9227
vn -0.0721 0.3805 -0.9220
vn 0.2423 -0.4643 -0.8519
vn 0.2308 -0.4595 -0.8577
vn 0.4832 0.5495 -0.6815
vn 0.4830 0.5494 -0.6818
vn 0.4826 -0.5494 -0.6821
vn 0.4832 -0.5495 -0.6816
vn -0.5108 -0.5287 -0.6779
vn -0.5109 -0.5287 -0.6778
vn -0.5106 -0.5286 -0.6781
vn -0.5106 -0.5286 -0.6782
vn -0.5104 0.5286 -0.6782
vn -0.5102 0.5286 -0.6784
vn -0.5108 0.5286 -0.6779
vn -0.5109 0.5286 -0.6779
vn -0.0720 -0.3806 -0.9220
vn -0.0690 -0.3791 -0.9228
vn -0.0000 0.0733 0.9973
vn -0.0000 0.4271 0.9042
vn -0.0000 0.0734 0.9973
vn -0.0000 -0.0734 0.9973
vn -0.0000 -0.4271 0.9042
vn -0.0000 -0.0733 0.9973
vn -0.0000 -0.0000 1.0000
vn 0.9565 0.2917 -0.0000
vn 0.9565 -0.2917 -0.0000
vn -0.9565 -0.2916 -0.0000
vn -0.9565 0.2916 -0.0000
vn 0.2747 -0.0000 -0.9615
vn -0.6978 -0.0704 -0.7128
vn 0.1559 -0.0323 -0.9872
vn 0.1054 0.1593 -0.9816
vn 0.1054 -0.1593 -0.9816
vn -0.0046 -0.1011 -0.9949
vn -0.1054 -0.1593 -0.9816
vn -0.1559 0.0323 -0.9872
vn -0.2747 -0.0000 -0.9615
vn 0.6978 0.0705 -0.7128
vn -0.1054 0.1593 -0.9816
vn 0.0045 0.1011 -0.9949
vn -0.0007 0.0006 -1.0000
vn -0.0061 -0.0000 -1.0000
vn -0.0016 -0.0000 -1.0000
vn 0.0017 -0.0007 -1.0000
vn 0.0029 -0.0004 -1.0000
vn -0.0000 0.0040 -1.0000
vn -0.8510 -0.0825 0.5186
vn -0.9405 -0.2912 -0.1752
vn -0.9523 -0.2892 0.0978
vn -0.8811 -0.2678 0.3898
vn -0.0000 0.9790 0.2037
vn -0.9521 0.2902 0.0963
vn -0.9377 0.2848 -0.1989
vn 0.8812 0.2677 0.3898
vn -0.0000 0.9626 -0.2711
vn 0.8510 0.0826 0.5186
vn 0.9405 0.2912 -0.1753
vn 0.9523 0.2891 0.0979
vn -0.0000 -0.9790 0.2037
vn 0.9521 -0.2901 0.0963
vn 0.9377 -0.2847 -0.1989
vn -0.0000 -0.9626 -0.2711
vn -0.0294 -0.0113 -0.9995
vn -0.0296 -0.0152 -0.9994
vn -0.0294 0.0113 -0.9995
vn -0.0296 0.0152 -0.9994
vn -0.0000 0.0213 -0.9998
vn 0.0294 0.0113 -0.9995
vn 0.0296 0.0153 -0.9994
vn 0.0294 -0.0113 -0.9995
vn 0.0296 -0.0153 -0.9994
vn -0.0000 -0.0213 -0.9998
vn 0.8388 0.5444 -0.0000
vn 0.8388 -0.5444 -0.0000
vn -0.8388 -0.5444 -0.0000
vn -0.8388 0.5444 -0.0000
vn -0.2271 -0.6220 0.7494
vn -0.7813 0.0437 0.6226
vn -0.7325 -0.1275 0.6687
vn -0.2271 0.6220 0.7493
vn -0.4561 0.6316 0.6269
vn 0.5313 0.5028 0.6818
vn 0.1814 0.6284 0.7565
vn 0.8347 0.0750 0.5456
vn 0.6658 0.2222 0.7123
vn 0.1646 -0.6303 0.7587
vn 0.5192 -0.5262 0.6735
vn -0.6314 -0.2427 0.7365
vn 0.5775 -0.2738 -0.7692
vn 0.6884 -0.3158 -0.6530
vn -0.0193 0.7577 -0.6523
vn -0.0113 0.5541 -0.8324
vn -0.0247 -0.5491 -0.8354
vn -0.0088 -0.7606 -0.6491
vn 0.6854 0.3195 -0.6543
vn 0.5901 0.2738 -0.7595
vn -0.5947 -0.2488 -0.7644
vn -0.6990 -0.3028 -0.6479
vn 0.7001 -0.2982 -0.6488
vn 0.5694 -0.2441 -0.7850
vn -0.5472 0.2608 -0.7953
vn -0.6891 0.3150 -0.6527
vn 0.0193 -0.7577 -0.6523
vn 0.0119 -0.5706 -0.8212
vn 0.0243 0.5717 -0.8201
vn 0.0097 0.7604 -0.6494
vn -0.6854 -0.3195 -0.6543
vn -0.6057 -0.2813 -0.7443
vn 0.6280 0.2643 -0.7320
vn 0.6993 0.3015 -0.6481
vn -0.7001 0.2982 -0.6488
vn -0.5942 0.2544 -0.7630
vn -0.7769 -0.6192 0.1146
vn -0.8816 -0.4577 0.1149
vn -0.8816 0.4577 0.1149
vn -0.7769 0.6192 0.1146
vn -0.0924 0.9906 0.1012
vn 0.0924 0.9906 0.1012
vn 0.7769 0.6192 0.1146
vn 0.8816 0.4577 0.1149
vn 0.8816 -0.4577 0.1149
vn 0.7769 -0.6192 0.1146
vn 0.0924 -0.9906 0.1012
vn -0.0924 -0.9906 0.1012
vn -0.0970 -0.9395 0.3286
vn -0.0003 -0.9382 0.3460
vn -0.0791 -0.9354 0.3446
vn -0.0791 0.9354 0.3446
vn -0.0003 0.9383 0.3460
vn -0.0970 0.9395 0.3286
vn -0.9743 -0.2085 0.0849
vn -0.9231 -0.3266 0.2027
vn 0.9175 -0.3432 0.2009
vn 0.9219 -0.2903 0.2565
vn -0.9231 0.3266 0.2027
vn -0.9743 0.2085 0.0849
vn 0.0725 0.3846 0.9203
vn 0.0718 0.3848 0.9202
vn 0.0737 0.3849 0.9200
vn 0.0744 0.3840 0.9203
vn 0.9175 0.3432 0.2009
vn 0.9219 0.2903 0.2565
vn -0.0697 0.3805 0.9221
vn -0.0720 0.3805 0.9220
vn -0.0711 0.3809 0.9219
vn -0.0689 0.3817 0.9217
vn 0.0737 -0.3849 0.9200
vn 0.0718 -0.3848 0.9202
vn 0.0725 -0.3846 0.9203
vn 0.0744 -0.3840 0.9203
vn 0.7740 0.6264 0.0924
vn 0.8251 0.5520 0.1204
vn 0.5754 0.6755 -0.4611
vn 0.3012 0.1587 -0.9403
vn 0.5080 0.7704 -0.3853
vn 0.7811 -0.6244 0.0040
vn 0.8599 -0.5069 -0.0596
vn 0.6089 -0.7475 -0.2656
vn 0.3011 -0.1587 -0.9403
vn 0.5086 -0.7843 -0.3552
vn -0.8043 -0.5888 0.0796
vn -0.8562 -0.5053 0.1078
vn -0.5782 -0.6671 -0.4697
vn -0.3009 -0.1586 -0.9404
vn -0.5071 -0.7623 -0.4022
vn -0.8102 0.5859 -0.0202
vn -0.8886 0.4496 -0.0905
vn -0.6154 0.7378 -0.2773
vn -0.3009 0.1586 -0.9404
vn -0.5084 0.7844 -0.3553
vn 0.0785 0.9353 0.3451
vn 0.0967 0.9394 0.3288
vn 0.0785 -0.9353 0.3451
vn 0.0967 -0.9394 0.3288
vn -0.0711 -0.3809 0.9219
vn -0.0721 -0.3806 0.9219
vn -0.0698 -0.3805 0.9221
vn -0.0689 -0.3817 0.9217
vn -0.0004 -0.9382 0.3460
vn -0.0004 0.9383 0.3460
vn 0.2308 0.4594 0.8577
vn 0.2422 0.4644 0.8519
vn -0.0690 0.3792 0.9227
vn -0.0721 0.3805 0.9220
vn 0.2423 -0.4643 0.8519
vn 0.2308 -0.4595 0.8577
vn 0.4830 0.5494 0.6818
vn 0.4832 0.5495 0.6815
vn 0.4832 -0.5495 0.6816
vn 0.4826 -0.5494 0.6821
vn -0.5108 -0.5287 0.6779
vn -0.5106 -0.5286 0.6782
vn -0.5106 -0.5286 0.6781
vn -0.5109 -0.5287 0.6778
vn -0.5104 0.5286 0.6782
vn -0.5109 0.5286 0.6779
vn -0.5108 0.5286 0.6779
vn -0.5102 0.5286 0.6784
vn -0.0720 -0.3806 0.9220
vn -0.0690 -0.3791 0.9228
vn -0.0000 0.0733 -0.9973
vn -0.0000 0.0734 -0.9973
vn -0.0000 0.4271 -0.9042
vn -0.0000 -0.0734 -0.9973
vn -0.0000 -0.0733 -0.9973
vn -0.0000 -0.4271 -0.9042
vn -0.0000 -0.0000 -1.0000
vn 0.2747 -0.0000 0.9615
vn 0.1054 0.1593 0.9816
vn 0.1559 -0.0323 0.9872
vn -0.6978 -0.0704 0.7128
vn -0.0046 -0.1011 0.9949
vn 0.1054 -0.1593 0.9816
vn -0.1054 -0.1593 0.9816
vn -0.1558 0.0323 0.9873
vn -0.2747 -0.0000 0.9615
vn 0.6978 0.0705 0.7128
vn 0.0045 0.1011 0.9949
vn -0.1054 0.1593 0.9816
vn -0.0007 0.0006 1.0000
vn -0.0000 0.0040 1.0000
vn 0.0029 -0.0004 1.0000
vn 0.0017 -0.0007 1.0000
vn -0.0016 -0.0000 1.0000
vn -0.0061 -0.0000 1.0000
vn -0.8811 -0.2678 -0.3898
vn -0.9523 -0.2892 -0.0978
vn -0.9405 -0.2912 0.1752
vn -0.8510 -0.0825 -0.5186
vn -0.9377 0.2848 0.1989
vn -0.9521 0.2902 -0.0963
vn -0.0000 0.9790 -0.2037
vn -0.0000 0.9626 0.2711
vn 0.8812 0.2677 -0.3898
vn 0.9523 0.2891 -0.0979
vn 0.9405 0.2912 0.1753
vn 0.8510 0.0826 -0.5186
vn 0.9377 -0.2847 0.1989
vn 0.9521 -0.2901 -0.0963
vn -0.0000 -0.9790 -0.2037
vn -0.0000 -0.9626 0.2711
vn -0.0294 -0.0113 0.9995
vn -0.0296 -0.0152 0.9994
vn -0.0294 0.0113 0.9995
vn -0.0296 0.0152 0.9994
vn -0.0000 0.0213 0.9998
vn 0.0294 0.0113 0.9995
vn 0.0296 0.0153 0.9994
vn 0.0294 -0.0113 0.9995
vn 0.0296 -0.0153 0.9994
vn -0.0000 -0.0213 0.9998
vn -0.2271 -0.6220 -0.7494
vn -0.7813 0.0437 -0.6226
vn -0.7325 -0.1275 -0.6687
vn -0.2271 0.6220 -0.7493
vn -0.4561 0.6316 -0.6269
vn 0.5313 0.5028 -0.6818
vn 0.1814 0.6284 -0.7565
vn 0.8347 0.0750 -0.5456
vn 0.6658 0.2222 -0.7123
vn 0.1646 -0.6303 -0.7587
vn 0.5192 -0.5262 -0.6735
vn -0.6314 -0.2427 -0.7365
vn 0.6884 -0.3158 0.6530
vn 0.5775 -0.2738 0.7691
vn -0.0113 0.5541 0.8324
vn -0.0193 0.7577 0.6523
vn -0.0088 -0.7606 0.6491
vn -0.0247 -0.5491 0.8354
vn 0.5901 0.2738 0.7595
vn 0.6854 0.3195 0.6543
vn -0.6990 -0.3028 0.6479
vn -0.5947 -0.2488 0.7644
vn 0.5694 -0.2441 0.7850
vn 0.7001 -0.2982 0.6488
vn -0.6891 0.3150 0.6527
vn -0.5472 0.2608 0.7953
vn 0.0119 -0.5706 0.8212
vn 0.0193 -0.7577 0.6523
vn 0.0097 0.7604 0.6494
vn 0.0243 0.5717 0.8201
vn -0.6057 -0.2813 0.7443
vn -0.6854 -0.3195 0.6543
vn 0.6993 0.3015 0.6481
vn 0.6280 0.2643 0.7320
vn -0.5942 0.2544 0.7630
vn -0.7001 0.2982 0.6488
vn -0.7769 -0.6192 -0.1146
vn -0.8816 -0.4577 -0.1149
vn -0.8816 0.4577 -0.1149
vn -0.7769 0.6192 -0.1146
vn -0.0924 0.9906 -0.1012
vn 0.0924 0.9906 -0.1012
vn 0.7769 0.6192 -0.1146
vn 0.8816 0.4577 -0.1149
vn 0.8816 -0.4577 -0.1149
vn 0.7769 -0.6192 -0.1146
vn 0.0924 -0.9906 -0.1012
vn -0.0924 -0.9906 -0.1012
vt 0.180662 0.921546
vt 0.264222 0.772428
vt 0.195973 0.791419
vt 0.060186 0.924351
vt 0.195711 0.960288
vt 0.180662 0.830474
vt 0.301391 0.827558
vt 0.264250 0.679543
vt 0.262337 0.792491
vt 0.262084 0.960288
vt 0.060998 0.835596
vt 0.300293 0.928435
vt 0.279791 0.724234
vt 0.229251 0.786014
vt 0.042807 0.879811
vt 0.228898 0.967036
vt 0.228898 0.948725
vt -0.899299 -0.271835
vt -0.984536 -0.242987
vt 0.264258 0.926987
vt 0.263976 0.825593
vt -0.925158 -0.242325
vt -0.924730 -0.242062
vt 0.298279 0.877794
vt -0.934809 -0.212859
vt -0.901527 -0.211226
vt 0.228931 0.805810
vt -0.841741 -0.235172
vt -1.101973 0.042994
vt 0.257219 0.358259
vt -0.836840 -0.247970
vt -0.927312 -0.245259
vt 0.298957 0.331014
vt -0.928484 -0.250259
vt -1.186806 0.028567
vt 0.283452 0.303769
vt -0.934809 -0.212859
vt -0.838522 -0.230060
vt 0.241714 0.331014
vt 0.193537 0.926987
vt -0.995382 -0.276424
vt -0.926289 -0.241750
vt 0.178346 0.876168
vt 0.193265 0.824451
vt 0.178396 0.877143
vt 0.193323 0.823741
vt 0.264210 0.927720
vt 0.298323 0.878909
vt 0.228942 0.805124
vt 0.228898 0.949429
vt 0.298345 0.876714
vt 0.263941 0.824881
vt 0.193585 0.927720
vt 0.178397 0.875162
vt -0.924378 -0.242303
vt -0.923963 -0.242027
vt -0.898698 -0.271605
vt -0.978694 -0.247009
vt -0.985664 -0.268508
vt -0.926707 -0.241735
vt -0.934809 -0.212859
vt -0.900919 -0.211408
vt 0.299165 0.877806
vt 0.179146 0.876165
vt 0.351839 0.827240
vt 0.215610 0.661008
vt 0.351280 0.878545
vt -0.847954 -0.240127
vt -0.848849 -0.238566
vt -0.849327 -0.301897
vt -0.840490 -0.243030
vt -0.461849 -0.238330
vt 0.283452 0.358259
vt -0.932810 -0.254315
vt -0.967625 -0.240228
vt -0.934805 -0.316915
vt -0.956817 -0.229713
vt -0.547327 -0.253348
vt 0.257219 0.303769
vt 0.450322 0.662620
vt 0.992295 0.440224
vt 0.539023 0.329138
vt 1.004865 0.537401
vt 0.450322 0.000000
vt 1.012607 0.635072
vt 0.087864 0.004663
vt 1.007576 0.619396
vt -0.001147 0.331014
vt 0.997866 0.538110
vt 0.087864 0.662994
vt 0.990607 0.456578
vt 0.990680 0.440493
vt 0.900000 0.335108
vt 1.000842 0.537820
vt 1.000000 0.658917
vt 1.010972 0.635141
vt 0.906422 0.992823
vt 1.009640 0.619132
vt 0.548291 0.991888
vt 1.001229 0.537760
vt 0.461368 0.662592
vt 0.992680 0.456411
vt 0.554249 0.332017
vt 1.693637 0.718488
vt -0.734136 -0.239547
vt 1.662045 0.661942
vt -0.765751 -0.240425
vt 1.695374 0.605681
vt -0.772473 -0.240527
vt 1.761605 0.604962
vt -0.741158 -0.240781
vt 1.793082 0.666339
vt -0.774809 -0.237179
vt 1.764174 0.721871
vt -0.765346 -0.239288
vt 0.893302 0.348743
vt -0.597992 -0.238939
vt 0.988827 0.658808
vt -0.801295 -0.244197
vt 0.900000 0.979059
vt -0.850478 -0.245393
vt 0.554988 0.978253
vt -0.644243 -0.247065
vt 0.472541 0.662702
vt -0.854809 -0.225019
vt 0.560670 0.345781
vt -0.803543 -0.237230
vt -0.666064 -0.239243
vt 1.545123 0.993526
vt -0.783523 -0.242311
vt 1.462324 0.661600
vt -0.811475 -0.242960
vt 1.547737 0.333954
vt -0.692701 -0.243923
vt 1.903807 0.333611
vt -0.814809 -0.231099
vt 2.000240 0.662486
vt -0.784445 -0.238259
vt 1.909377 0.994612
vt 1.683267 0.590766
vt 0.701733 0.711657
vt 0.701754 0.709362
vt 1.776243 0.592179
vt 0.671258 0.666529
vt 0.669653 0.666535
vt 1.812820 0.677669
vt 0.702824 0.608052
vt 0.701617 0.610405
vt 1.774082 0.735418
vt 0.759313 0.613070
vt 0.757990 0.607766
vt 1.681107 0.734005
vt 0.790379 0.663587
vt 0.791008 0.663471
vt 1.644530 0.648515
vt 0.761607 0.711294
vt 0.761616 0.709928
vt 1.691167 0.693732
vt 0.679261 0.710581
vt 1.688009 0.713120
vt -0.741990 -0.239765
vt 1.682681 0.679649
vt 0.663927 0.687874
vt 1.663738 0.668067
vt -0.757897 -0.240207
vt 1.682562 0.645947
vt 0.658575 0.640965
vt 1.665591 0.654598
vt -0.767421 -0.240450
vt 1.691179 0.631943
vt 0.675265 0.611539
vt 1.687290 0.613841
vt -0.770803 -0.240502
vt 1.718815 0.615918
vt 0.720702 0.590919
vt 1.705839 0.604555
vt -0.762919 -0.240605
vt 1.731137 0.616010
vt 0.743194 0.591958
vt 1.750401 0.603518
vt -0.750712 -0.240704
vt 1.765512 0.644739
vt 0.778285 0.614653
vt 1.768323 0.613403
vt -0.749518 -0.239886
vt 1.774966 0.659401
vt 0.794582 0.642740
vt 1.788406 0.656223
vt -0.766450 -0.238074
vt 1.773616 0.679146
vt 0.795347 0.682664
vt 1.788349 0.676448
vt -0.772459 -0.237703
vt 1.764558 0.693308
vt 0.780554 0.706727
vt 1.767658 0.714707
vt -0.767697 -0.238764
vt 1.740310 0.715708
vt 0.742601 0.726453
vt 1.757233 0.720512
vt -0.755825 -0.239367
vt 1.728200 0.715574
vt 0.719265 0.726233
vt 1.702235 0.721072
vt -0.743658 -0.239468
vt -0.597992 -0.238939
vt -0.799691 -0.244027
vt -0.850478 -0.245393
vt -0.644243 -0.247065
vt -0.851198 -0.225568
vt -0.803543 -0.237230
vt 1.467933 0.672522
vt -0.781032 -0.242246
vt 1.466284 0.672387
vt 1.550804 0.982204
vt -0.668816 -0.239315
vt 1.542557 0.982781
vt 1.553507 0.342178
vt -0.810820 -0.242945
vt 1.544155 0.345099
vt 1.467758 0.651075
vt -0.784116 -0.242325
vt 1.466398 0.650848
vt 1.904353 0.340958
vt -0.695794 -0.243898
vt 1.893363 0.332593
vt 1.553394 0.338340
vt -0.808382 -0.242985
vt 1.564448 0.333867
vt 2.002928 0.660031
vt -0.812220 -0.231371
vt 1.996511 0.651728
vt 1.905067 0.334271
vt -0.695562 -0.243622
vt 1.910673 0.342340
vt 1.907467 0.987854
vt -0.785156 -0.238091
vt 1.913336 0.982612
vt 1.998193 0.674955
vt -0.814166 -0.231251
vt 1.996637 0.672859
vt 1.556066 0.983460
vt -0.669147 -0.239217
vt 1.562452 0.993426
vt 1.900975 0.987287
vt -0.781362 -0.238284
vt 1.894675 0.994445
vt 0.696215 0.715410
vt 0.701476 0.715546
vt -0.734136 -0.239547
vt 0.665739 0.670282
vt 0.662500 0.662446
vt -0.765751 -0.240425
vt 0.695670 0.603963
vt 0.702166 0.602888
vt -0.772473 -0.240527
vt 0.759862 0.605553
vt 0.762526 0.605181
vt -0.741158 -0.240781
vt 0.794915 0.661002
vt 0.795319 0.666179
vt -0.774809 -0.237179
vt 0.765919 0.714002
vt 0.761338 0.716111
vt -0.765346 -0.239288
vt 0.180662 0.921546
vt 0.264222 0.772428
vt 0.195973 0.791419
vt 0.178396 0.877143
vt 0.193323 0.823741
vt 0.179146 0.876165
vt 0.226198 0.876010
vt 0.226198 0.922329
vt 0.216644 0.788316
vt 0.301391 0.827558
vt 0.264250 0.679543
vt 0.262337 0.792491
vt 0.299165 0.877806
vt 0.298345 0.876714
vt 0.263941 0.824881
vt 0.216118 0.726760
vt 0.279791 0.724234
vt 0.229251 0.786014
vt 0.104431 0.939261
vt 0.226198 0.829691
vt 0.060186 0.924351
vt 0.195711 0.960288
vt 0.180662 0.830474
vt 0.042807 0.879811
vt 0.228898 0.967036
vt 0.104970 0.880379
vt 0.264210 0.927720
vt 0.298323 0.878909
vt 0.262084 0.960288
vt 0.060998 0.835596
vt 0.300293 0.928435
vt 0.228898 0.949429
vt 0.105508 0.821498
vt 0.350722 0.929851
vt 0.228942 0.805124
vt 0.193585 0.927720
vt 0.178397 0.875162
vt -0.898698 -0.271605
vt -0.978694 -0.247009
vt -0.836840 -0.247970
vt -0.927312 -0.245259
vt 0.298957 0.331014
vt -0.840490 -0.243030
vt -0.461849 -0.238330
vt 0.283452 0.358259
vt -0.847954 -0.240127
vt -0.848849 -0.238566
vt -0.849327 -0.301897
vt -0.924378 -0.242303
vt -0.923963 -0.242027
vt -0.985664 -0.268508
vt -0.926707 -0.241735
vt -0.932810 -0.254315
vt -0.967625 -0.240228
vt -0.934805 -0.316915
vt -0.928484 -0.250259
vt -1.186806 0.028567
vt 0.283452 0.303769
vt -0.934809 -0.212859
vt -0.900919 -0.211408
vt -0.934809 -0.212859
vt -0.838522 -0.230060
vt 0.241714 0.331014
vt -0.956817 -0.229713
vt -0.547327 -0.253348
vt 0.257219 0.303769
vt -0.841741 -0.235172
vt -1.101973 0.042994
vt 0.257219 0.358259
vt 0.193537 0.926987
vt -0.995382 -0.276424
vt -0.926289 -0.241750
vt 0.178346 0.876168
vt 0.193265 0.824451
vt 0.264258 0.926987
vt 0.263976 0.825593
vt -0.925158 -0.242325
vt -0.924730 -0.242062
vt 0.298279 0.877794
vt 0.228898 0.948725
vt -0.899299 -0.271835
vt -0.984536 -0.242987
vt -0.934809 -0.212859
vt -0.901527 -0.211226
vt 0.228931 0.805810
vt 0.539023 0.329138
vt 1.004865 0.537401
vt 0.450322 0.662620
vt 0.992295 0.440224
vt 0.450322 0.000000
vt 1.012607 0.635072
vt 0.087864 0.004663
vt 1.007576 0.619396
vt -0.001147 0.331014
vt 0.997866 0.538110
vt 0.087864 0.662994
vt 0.990607 0.456578
vt 1.000842 0.537820
vt 1.000000 0.658917
vt 0.990680 0.440493
vt 0.900000 0.335108
vt 1.010972 0.635141
vt 0.906422 0.992823
vt 1.009640 0.619132
vt 0.548291 0.991888
vt 1.001229 0.537760
vt 0.461368 0.662592
vt 0.992680 0.456411
vt 0.554249 0.332017
vt 0.988827 0.658808
vt -0.801295 -0.244197
vt 0.893302 0.348743
vt -0.597992 -0.238939
vt 0.900000 0.979059
vt -0.850478 -0.245393
vt 0.554988 0.978253
vt -0.644243 -0.247065
vt 0.472541 0.662702
vt -0.854809 -0.225019
vt 0.560670 0.345781
vt -0.803543 -0.237230
vt 1.683267 0.590766
vt 0.701733 0.711657
vt 0.701754 0.709362
vt 1.776243 0.592179
vt 0.671258 0.666529
vt 0.669653 0.666535
vt 1.812820 0.677669
vt 0.702824 0.608052
vt 0.701617 0.610405
vt 1.774082 0.735418
vt 0.759313 0.613070
vt 0.757990 0.607766
vt 1.681107 0.734005
vt 0.790379 0.663587
vt 0.791008 0.663471
vt 1.644530 0.648515
vt 0.761607 0.711294
vt 0.761616 0.709928
vt -0.799691 -0.244027
vt 1.467933 0.672522
vt -0.781032 -0.242246
vt 1.466284 0.672387
vt 1.550804 0.982204
vt -0.668816 -0.239315
vt 1.542557 0.982781
vt -0.597992 -0.238939
vt -0.850478 -0.245393
vt 1.553507 0.342178
vt -0.810820 -0.242945
vt 1.544155 0.345099
vt 1.467758 0.651075
vt -0.784116 -0.242325
vt 1.466398 0.650848
vt -0.644243 -0.247065
vt 1.904353 0.340958
vt -0.695794 -0.243898
vt 1.893363 0.332593
vt 1.553394 0.338340
vt -0.808382 -0.242985
vt 1.564448 0.333867
vt -0.851198 -0.225568
vt 2.002928 0.660031
vt -0.812220 -0.231371
vt 1.996511 0.651728
vt 1.905067 0.334271
vt -0.695562 -0.243622
vt 1.910673 0.342340
vt -0.803543 -0.237230
vt 1.907467 0.987854
vt -0.785156 -0.238091
vt 1.913336 0.982612
vt 1.998193 0.674955
vt -0.814166 -0.231251
vt 1.996637 0.672859
vt 1.556066 0.983460
vt -0.669147 -0.239217
vt 1.562452 0.993426
vt 1.900975 0.987287
vt -0.781362 -0.238284
vt 1.894675 0.994445
vt 1.682681 0.679649
vt 0.663927 0.687874
vt 1.663738 0.668067
vt -0.757897 -0.240207
vt 1.691167 0.693732
vt 0.679261 0.710581
vt 1.688009 0.713120
vt -0.741990 -0.239765
vt 1.691179 0.631943
vt 0.675265 0.611539
vt 1.687290 0.613841
vt -0.770803 -0.240502
vt 1.682562 0.645947
vt 0.658575 0.640965
vt 1.665591 0.654598
vt -0.767421 -0.240450
vt 1.731137 0.616010
vt 0.743194 0.591958
vt 1.750401 0.603518
vt -0.750712 -0.240704
vt 1.718815 0.615918
vt 0.720702 0.590919
vt 1.705839 0.604555
vt -0.762919 -0.240605
vt 1.774966 0.659401
vt 0.794582 0.642740
vt 1.788406 0.656223
vt -0.766450 -0.238074
vt 1.765512 0.644739
vt 0.778285 0.614653
vt 1.768323 0.613403
vt -0.749518 -0.239886
vt 1.764558 0.693308
vt 0.780554 0.706727
vt 1.767658 0.714707
vt -0.767697 -0.238764
vt 1.773616 0.679146
vt 0.795347 0.682664
vt 1.788349 0.676448
vt -0.772459 -0.237703
vt 1.728200 0.715574
vt 0.719265 0.726233
vt 1.702235 0.721072
vt -0.743658 -0.239468
vt 1.740310 0.715708
vt 0.742601 0.726453
vt 1.757233 0.720512
vt -0.755825 -0.239367
vt 0.665739 0.670282
vt 0.662500 0.662446
vt -0.765751 -0.240425
vt 0.696215 0.715410
vt 0.701476 0.715546
vt -0.734136 -0.239547
vt 0.695670 0.603963
vt 0.702166 0.602888
vt -0.772473 -0.240527
vt 0.759862 0.605553
vt 0.762526 0.605181
vt -0.741158 -0.240781
vt 0.794915 0.661002
vt 0.795319 0.666179
vt -0.774809 -0.237179
vt 0.765919 0.714002
vt 0.761338 0.716111
vt -0.765346 -0.239288
vt -0.783523 -0.242311
vt 1.462324 0.661600
vt -0.666064 -0.239243
vt 1.545123 0.993526
vt -0.811475 -0.242960
vt 1.547737 0.333954
vt -0.692701 -0.243923
vt 1.903807 0.333611
vt -0.814809 -0.231099
vt 2.000240 0.662486
vt -0.784445 -0.238259
vt 1.909377 0.994612
vt 1.693637 0.718488
vt -0.734136 -0.239547
vt 1.662045 0.661942
vt -0.765751 -0.240425
vt 1.695374 0.605681
vt -0.772473 -0.240527
vt 1.761605 0.604962
vt -0.741158 -0.240781
vt 1.793082 0.666339
vt -0.774809 -0.237179
vt 1.764174 0.721871
vt -0.765346 -0.239288
s 1
usemtl Material_#26.001
f 1/1/1 15/45/2 26/64/3
f 1/1/1 26/64/3 108/272/4
f 1/1/1 108/272/4 109/273/5
f 3/7/6 27/65/7 28/67/8
f 28/67/8 25/63/9 19/51/10
f 3/7/6 28/67/8 19/51/10
f 109/274/11 113/281/12 5/13/13
f 5/13/13 1/2/14 109/274/11
f 2/4/15 6/15/16 118/291/17
f 118/291/17 115/284/18 2/4/15
f 27/66/19 3/8/20 5/13/21
f 5/13/21 113/281/22 27/66/19
f 4/10/23 6/16/24 18/50/25
f 18/50/25 16/47/26 4/10/23
f 4/11/27 122/298/28 118/291/29
f 118/291/29 6/15/30 4/11/27
f 17/49/31 5/14/32 3/9/33
f 3/9/33 19/52/34 17/49/31
f 18/50/35 6/16/36 2/5/37
f 2/5/37 20/53/38 18/50/35
f 11/31/39 30/71/40 29/68/41
f 22/57/42 11/31/39 29/68/41
f 22/57/42 29/68/41 21/55/43
f 31/74/44 12/34/45 11/32/46
f 23/59/47 31/74/44 11/32/46
f 23/59/47 11/32/46 22/58/48
f 13/37/49 32/77/50 31/75/51
f 24/61/52 13/37/49 31/75/51
f 24/61/52 31/75/51 23/60/53
f 29/69/54 10/28/55 13/38/56
f 21/56/57 29/69/54 13/38/56
f 21/56/57 13/38/56 24/62/58
f 28/67/8 122/299/59 4/12/60
f 4/12/60 16/48/61 25/63/9
f 28/67/8 4/12/60 25/63/9
f 2/6/62 115/285/63 108/272/4
f 20/54/64 2/6/62 108/272/4
f 20/54/64 108/272/4 26/64/3
f 1/3/65 5/14/66 17/49/67
f 17/49/67 15/46/68 1/3/65
f 15/45/2 14/43/69 26/64/3
f 25/63/9 8/24/70 19/51/10
f 8/20/71 16/47/26 18/50/25
f 18/50/25 7/17/72 8/20/71
f 9/27/73 17/49/31 19/52/34
f 19/52/34 8/21/74 9/27/73
f 7/17/75 18/50/35 20/53/38
f 20/53/38 14/40/76 7/17/75
f 7/18/72 22/57/77 21/55/78
f 21/55/78 8/22/71 7/18/72
f 14/41/76 23/59/79 22/58/80
f 22/58/80 7/19/75 14/41/76
f 9/25/81 24/61/82 23/60/83
f 23/60/83 14/42/84 9/25/81
f 8/23/85 21/56/86 24/62/87
f 24/62/87 9/26/88 8/23/85
f 16/48/61 8/24/70 25/63/9
f 26/64/3 14/43/69 20/54/64
f 14/44/89 15/46/68 17/49/67
f 17/49/67 9/27/90 14/44/89
f 10/29/91 29/70/92 30/72/93
f 12/35/94 31/76/95 32/78/96
f 30/73/93 11/33/97 34/82/97
f 34/82/97 33/80/97 30/73/93
f 11/33/97 12/36/94 35/84/97
f 35/84/97 34/82/97 11/33/97
f 12/36/94 32/79/96 36/86/97
f 36/86/97 35/84/97 12/36/94
f 32/79/96 13/39/97 37/88/97
f 37/88/97 36/86/97 32/79/96
f 13/39/97 10/30/91 38/90/97
f 38/90/97 37/88/97 13/39/97
f 10/30/91 30/73/93 33/80/97
f 33/80/97 38/90/97 10/30/91
f 33/81/98 34/83/98 40/94/98
f 40/94/98 39/92/98 33/81/98
f 34/83/99 35/85/99 41/96/99
f 41/96/99 40/94/99 34/83/99
f 35/85/4 36/87/4 42/98/4
f 42/98/4 41/96/4 35/85/4
f 36/87/100 37/89/100 43/100/100
f 43/100/100 42/98/100 36/87/100
f 37/89/101 38/91/101 44/102/101
f 44/102/101 43/100/101 37/89/101
f 38/91/8 33/81/8 39/92/8
f 39/92/8 44/102/8 38/91/8
f 40/95/102 52/118/103 51/116/104
f 51/116/104 39/93/105 40/95/102
f 40/95/102 41/97/106 53/120/107
f 53/120/107 52/118/103 40/95/102
f 42/99/108 54/122/109 53/120/107
f 53/120/107 41/97/106 42/99/108
f 43/101/110 55/124/111 54/122/109
f 54/122/109 42/99/108 43/101/110
f 43/101/110 44/103/112 56/126/113
f 56/126/113 55/124/111 43/101/110
f 39/93/105 51/116/104 56/126/113
f 56/126/113 44/103/112 39/93/105
f 63/140/114 64/143/115 65/146/116
f 63/140/114 65/146/116 66/149/117
f 63/140/114 66/149/117 67/152/118
f 63/140/114 67/152/118 68/155/119
f 52/119/103 82/207/120 87/213/121
f 87/213/121 88/216/122 81/206/123
f 52/119/103 87/213/121 81/206/123
f 52/119/103 81/206/123 51/117/104
f 53/121/107 83/208/124 89/219/125
f 89/219/125 90/222/126 82/207/120
f 53/121/107 89/219/125 82/207/120
f 53/121/107 82/207/120 52/119/103
f 54/123/109 84/209/127 91/225/128
f 91/225/128 92/228/128 83/208/124
f 54/123/109 91/225/128 83/208/124
f 54/123/109 83/208/124 53/121/107
f 55/125/111 85/210/129 93/231/130
f 93/231/130 94/234/131 84/209/127
f 55/125/111 93/231/130 84/209/127
f 55/125/111 84/209/127 54/123/109
f 56/127/113 86/211/132 95/237/133
f 95/237/133 96/240/134 85/210/129
f 56/127/113 95/237/133 85/210/129
f 56/127/113 85/210/129 55/125/111
f 51/117/104 81/206/123 97/243/135
f 97/243/135 98/246/135 86/211/132
f 51/117/104 97/243/135 86/211/132
f 51/117/104 86/211/132 56/127/113
f 69/158/136 88/215/122 87/212/121
f 87/212/121 70/162/137 69/158/136
f 72/170/138 71/166/139 90/221/126
f 90/221/126 89/218/125 72/170/138
f 73/174/140 92/227/128 91/224/128
f 91/224/128 74/178/140 73/174/140
f 75/182/141 94/233/131 93/230/130
f 93/230/130 76/186/142 75/182/141
f 78/194/143 77/190/144 96/239/134
f 96/239/134 95/236/133 78/194/143
f 79/198/145 98/245/135 97/242/135
f 97/242/135 80/202/145 79/198/145
f 69/159/146 70/163/146 100/251/146
f 69/159/146 100/251/146 64/144/146
f 69/159/146 64/144/146 63/141/146
f 69/159/146 63/141/146 99/248/146
f 71/167/147 72/171/147 101/254/147
f 71/167/147 101/254/147 65/147/147
f 71/167/147 65/147/147 64/145/147
f 71/167/147 64/145/147 100/252/147
f 73/175/4 74/179/4 102/257/4
f 73/175/4 102/257/4 66/150/4
f 73/175/4 66/150/4 65/148/4
f 73/175/4 65/148/4 101/255/4
f 75/183/148 76/187/148 103/260/148
f 75/183/148 103/260/148 67/153/148
f 75/183/148 67/153/148 66/151/148
f 75/183/148 66/151/148 102/258/148
f 77/191/149 78/195/149 104/263/149
f 77/191/149 104/263/149 68/156/149
f 77/191/149 68/156/149 67/154/149
f 77/191/149 67/154/149 103/261/149
f 79/199/8 80/203/8 99/249/8
f 79/199/8 99/249/8 63/142/8
f 79/199/8 63/142/8 68/157/8
f 79/199/8 68/157/8 104/264/8
f 82/207/150 58/130/150 87/213/150
f 88/216/151 57/128/151 81/206/151
f 83/208/152 59/132/152 89/219/152
f 90/222/153 58/130/153 82/207/153
f 84/209/154 60/134/154 91/225/154
f 92/228/155 59/132/155 83/208/155
f 85/210/156 61/136/156 93/231/156
f 94/234/157 60/134/157 84/209/157
f 86/211/158 62/138/158 95/237/158
f 96/240/159 61/136/159 85/210/159
f 81/206/160 57/128/160 97/243/160
f 98/246/161 62/138/161 86/211/161
f 57/129/162 88/217/162 69/160/162
f 69/160/163 45/104/163 57/129/163
f 46/106/164 70/164/164 87/214/164
f 87/214/165 58/131/165 46/106/165
f 58/131/166 90/223/166 71/168/166
f 71/168/167 46/106/167 58/131/167
f 47/108/168 72/172/168 89/220/168
f 89/220/169 59/133/169 47/108/169
f 59/133/170 92/229/170 73/176/170
f 73/176/171 47/108/171 59/133/171
f 48/110/172 74/180/172 91/226/172
f 91/226/173 60/135/173 48/110/173
f 60/135/174 94/235/174 75/184/174
f 75/184/175 48/110/175 60/135/175
f 49/112/176 76/188/176 93/232/176
f 93/232/177 61/137/177 49/112/177
f 61/137/178 96/241/178 77/192/178
f 77/192/179 49/112/179 61/137/179
f 50/114/180 78/196/180 95/238/180
f 95/238/181 62/139/181 50/114/181
f 62/139/182 98/247/182 79/200/182
f 79/200/183 50/114/183 62/139/183
f 45/104/184 80/204/184 97/244/184
f 97/244/185 57/129/185 45/104/185
f 70/165/186 46/107/186 100/253/186
f 99/250/187 45/105/187 69/161/187
f 72/173/188 47/109/188 101/256/188
f 100/253/189 46/107/189 71/169/189
f 74/181/190 48/111/190 102/259/190
f 101/256/191 47/109/191 73/177/191
f 76/189/192 49/113/192 103/262/192
f 102/259/193 48/111/193 75/185/193
f 78/197/194 50/115/194 104/265/194
f 103/262/195 49/113/195 77/193/195
f 80/205/196 45/105/196 99/250/196
f 104/265/197 50/115/197 79/201/197
f 105/266/198 109/273/5 108/272/4
f 105/266/198 108/272/4 107/271/199
f 105/266/198 107/271/199 106/269/200
f 112/279/201 111/278/202 28/67/8
f 110/275/203 112/279/201 28/67/8
f 110/275/203 28/67/8 27/65/7
f 109/274/11 105/267/204 114/282/205
f 114/282/205 113/281/12 109/274/11
f 116/286/206 115/284/18 118/291/17
f 118/291/17 117/289/207 116/286/206
f 27/66/19 113/281/22 114/282/208
f 114/282/208 110/276/209 27/66/19
f 120/294/210 119/292/211 121/297/212
f 121/297/212 117/290/213 120/294/210
f 120/295/214 117/289/215 118/291/29
f 118/291/29 122/298/28 120/295/214
f 123/300/216 112/280/217 110/277/218
f 110/277/218 114/283/219 123/300/216
f 121/297/220 124/301/221 116/287/222
f 116/287/222 117/290/223 121/297/220
f 125/303/224 129/314/225 128/311/226
f 128/311/226 127/308/227 126/305/228
f 125/303/224 128/311/226 126/305/228
f 130/316/229 125/304/230 126/306/231
f 126/306/231 132/321/232 131/318/233
f 130/316/229 126/306/231 131/318/233
f 133/324/234 130/317/235 131/319/236
f 131/319/236 135/329/237 134/326/238
f 133/324/234 131/319/236 134/326/238
f 129/315/239 133/325/240 134/327/241
f 134/327/241 136/332/242 128/312/243
f 129/315/239 134/327/241 128/312/243
f 111/278/202 119/293/244 120/296/245
f 28/67/8 111/278/202 120/296/245
f 28/67/8 120/296/245 122/299/59
f 124/302/246 107/271/199 108/272/4
f 108/272/4 115/285/63 116/288/247
f 124/302/246 108/272/4 116/288/247
f 105/268/248 106/270/249 123/300/250
f 123/300/250 114/283/251 105/268/248
f 106/269/200 107/271/199 137/338/252
f 111/278/202 112/279/201 138/344/253
f 138/340/254 139/345/255 121/297/212
f 121/297/212 119/292/211 138/340/254
f 140/350/256 138/341/257 112/280/217
f 112/280/217 123/300/216 140/350/256
f 139/345/258 137/335/259 124/301/221
f 124/301/221 121/297/220 139/345/258
f 139/346/255 138/342/254 129/314/260
f 129/314/260 125/303/261 139/346/255
f 137/336/259 139/347/258 125/304/262
f 125/304/262 130/316/263 137/336/259
f 140/348/264 137/337/265 130/317/266
f 130/317/266 133/324/267 140/348/264
f 138/343/268 140/349/269 133/325/270
f 133/325/270 129/315/271 138/343/268
f 119/293/244 111/278/202 138/344/253
f 107/271/199 124/302/246 137/338/252
f 137/339/272 140/350/273 123/300/250
f 123/300/250 106/270/249 137/339/272
f 136/333/274 127/309/275 128/313/276
f 132/322/277 135/330/278 131/320/279
f 127/310/275 142/353/280 141/351/280
f 141/351/280 126/307/280 127/310/275
f 126/307/280 141/351/280 143/355/280
f 143/355/280 132/323/277 126/307/280
f 132/323/277 143/355/280 144/357/280
f 144/357/280 135/331/278 132/323/277
f 135/331/278 144/357/280 145/359/280
f 145/359/280 134/328/280 135/331/278
f 134/328/280 145/359/280 146/361/280
f 146/361/280 136/334/274 134/328/280
f 136/334/274 146/361/280 142/353/280
f 142/353/280 127/310/275 136/334/274
f 142/354/98 148/365/98 147/363/98
f 147/363/98 141/352/98 142/354/98
f 141/352/99 147/363/99 149/367/99
f 149/367/99 143/356/99 141/352/99
f 143/356/4 149/367/4 150/369/4
f 150/369/4 144/358/4 143/356/4
f 144/358/100 150/369/100 151/371/100
f 151/371/100 145/360/100 144/358/100
f 145/360/101 151/371/101 152/373/101
f 152/373/101 146/362/101 145/360/101
f 146/362/8 152/373/8 148/365/8
f 148/365/8 142/354/8 146/362/8
f 147/364/281 148/366/282 154/377/283
f 154/377/283 153/375/284 147/364/281
f 147/364/281 153/375/284 155/379/285
f 155/379/285 149/368/286 147/364/281
f 150/370/287 149/368/286 155/379/285
f 155/379/285 156/381/288 150/370/287
f 151/372/289 150/370/287 156/381/288
f 156/381/288 157/383/290 151/372/289
f 151/372/289 157/383/290 158/385/291
f 158/385/291 152/374/292 151/372/289
f 148/366/282 152/374/292 158/385/291
f 158/385/291 154/377/283 148/366/282
f 159/387/293 164/402/294 163/399/295
f 159/387/293 163/399/295 162/396/296
f 159/387/293 162/396/296 161/393/297
f 159/387/293 161/393/297 160/390/298
f 153/376/284 154/378/283 168/412/299
f 168/412/299 167/410/300 166/407/301
f 153/376/284 168/412/299 166/407/301
f 153/376/284 166/407/301 165/405/302
f 155/380/285 153/376/284 165/405/302
f 165/405/302 171/418/303 170/415/304
f 155/380/285 165/405/302 170/415/304
f 155/380/285 170/415/304 169/413/305
f 156/382/288 155/380/285 169/413/305
f 169/413/305 174/425/306 173/422/306
f 156/382/288 169/413/305 173/422/306
f 156/382/288 173/422/306 172/420/307
f 157/384/290 156/382/288 172/420/307
f 172/420/307 177/432/308 176/429/309
f 157/384/290 172/420/307 176/429/309
f 157/384/290 176/429/309 175/427/310
f 158/386/291 157/384/290 175/427/310
f 175/427/310 180/439/311 179/436/312
f 158/386/291 175/427/310 179/436/312
f 158/386/291 179/436/312 178/434/313
f 154/378/283 158/386/291 178/434/313
f 178/434/313 182/445/314 181/442/314
f 154/378/283 178/434/313 181/442/314
f 154/378/283 181/442/314 168/412/299
f 184/451/315 183/447/316 166/406/301
f 166/406/301 167/409/300 184/451/315
f 185/455/317 170/414/304 171/417/303
f 171/417/303 186/459/318 185/455/317
f 188/467/319 187/463/319 173/421/306
f 173/421/306 174/424/306 188/467/319
f 190/475/320 189/471/321 176/428/309
f 176/428/309 177/431/308 190/475/320
f 191/479/322 179/435/312 180/438/311
f 180/438/311 192/483/323 191/479/322
f 194/491/324 193/487/324 181/441/314
f 181/441/314 182/444/314 194/491/324
f 184/452/146 196/498/146 159/388/146
f 184/452/146 159/388/146 160/391/146
f 184/452/146 160/391/146 195/495/146
f 184/452/146 195/495/146 183/448/146
f 186/460/147 195/496/147 160/392/147
f 186/460/147 160/392/147 161/394/147
f 186/460/147 161/394/147 197/501/147
f 186/460/147 197/501/147 185/456/147
f 188/468/4 197/502/4 161/395/4
f 188/468/4 161/395/4 162/397/4
f 188/468/4 162/397/4 198/504/4
f 188/468/4 198/504/4 187/464/4
f 190/476/148 198/505/148 162/398/148
f 190/476/148 162/398/148 163/400/148
f 190/476/148 163/400/148 199/507/148
f 190/476/148 199/507/148 189/472/148
f 192/484/149 199/508/149 163/401/149
f 192/484/149 163/401/149 164/403/149
f 192/484/149 164/403/149 200/510/149
f 192/484/149 200/510/149 191/480/149
f 194/492/8 200/511/8 164/404/8
f 194/492/8 164/404/8 159/389/8
f 194/492/8 159/389/8 196/499/8
f 194/492/8 196/499/8 193/488/8
f 165/405/325 166/407/325 201/513/325
f 167/410/326 168/412/326 202/515/326
f 169/413/327 170/415/327 203/517/327
f 171/418/328 165/405/328 201/513/328
f 172/420/329 173/422/329 204/519/329
f 174/425/330 169/413/330 203/517/330
f 175/427/331 176/429/331 205/521/331
f 177/432/332 172/420/332 204/519/332
f 178/434/333 179/436/333 206/523/333
f 180/439/334 175/427/334 205/521/334
f 168/412/335 181/442/335 202/515/335
f 182/445/336 178/434/336 206/523/336
f 202/516/337 207/525/337 184/453/337
f 184/453/338 167/411/338 202/516/338
f 208/527/339 201/514/339 166/408/339
f 166/408/340 183/449/340 208/527/340
f 201/514/341 208/527/341 186/461/341
f 186/461/342 171/419/342 201/514/342
f 209/529/343 203/518/343 170/416/343
f 170/416/344 185/457/344 209/529/344
f 203/518/345 209/529/345 188/469/345
f 188/469/346 174/426/346 203/518/346
f 210/531/347 204/520/347 173/423/347
f 173/423/348 187/465/348 210/531/348
f 204/520/349 210/531/349 190/477/349
f 190/477/350 177/433/350 204/520/350
f 211/533/351 205/522/351 176/430/351
f 176/430/352 189/473/352 211/533/352
f 205/522/353 211/533/353 192/485/353
f 192/485/354 180/440/354 205/522/354
f 212/535/355 206/524/355 179/437/355
f 179/437/356 191/481/356 212/535/356
f 206/524/357 212/535/357 194/493/357
f 194/493/358 182/446/358 206/524/358
f 207/525/359 202/516/359 181/443/359
f 181/443/360 193/489/360 207/525/360
f 183/450/361 195/497/361 208/528/361
f 196/500/362 184/454/362 207/526/362
f 185/458/363 197/503/363 209/530/363
f 195/497/364 186/462/364 208/528/364
f 187/466/365 198/506/365 210/532/365
f 197/503/366 188/470/366 209/530/366
f 189/474/367 199/509/367 211/534/367
f 198/506/368 190/478/368 210/532/368
f 191/482/369 200/512/369 212/536/369
f 199/509/370 192/486/370 211/534/370
f 193/490/371 196/500/371 207/526/371
f 200/512/372 194/494/372 212/536/372
